<svg width="192" height="24" viewBox="0 0 192 24" fill="none" xmlns="http://www.w3.org/2000/svg">
<g clip-path="url(#clip0_2238_15984)">
<path d="M13.4519 16.075C13.4519 17.0792 13.3726 18.0538 13.2107 18.9953C13.0522 19.9368 12.7251 20.7825 12.2362 21.5291C11.744 22.279 11.0337 22.8769 10.1054 23.3262C9.17385 23.7754 7.93834 24.0001 6.3956 24.0001C5.25589 24.0001 4.28466 23.8118 3.48191 23.4385C2.67915 23.0652 2.02176 22.5498 1.4998 21.8991C0.977847 21.2483 0.597943 20.4719 0.356787 19.5734C0.11563 18.6748 -0.0032959 17.7036 -0.0032959 16.6531V15.4341H3.75279V16.62C3.75279 17.9249 3.95761 18.9358 4.36725 19.6527C4.77688 20.3695 5.55321 20.7263 6.69622 20.7263C7.29746 20.7263 7.79299 20.6305 8.1828 20.4389C8.57262 20.244 8.88315 19.9632 9.11439 19.5866C9.34564 19.2133 9.5009 18.7475 9.58019 18.1892C9.65947 17.6342 9.69911 17.0033 9.69911 16.2963V0.545166H13.4519V16.075Z" fill="#2E2E2E"/>
<path d="M26.177 3.27378C25.0373 3.27378 24.0495 3.51824 23.2203 4.01046C22.3879 4.50268 21.7139 5.16008 21.192 5.98266C20.67 6.80523 20.2868 7.74343 20.0358 8.79064C19.7847 9.83785 19.6592 10.9082 19.6592 11.9983C19.6592 13.0885 19.7847 14.1588 20.0358 15.2061C20.2868 16.2533 20.67 17.1882 21.192 18.014C21.7139 18.8366 22.3879 19.494 23.2203 19.9862C24.0495 20.4785 25.0373 20.7262 26.177 20.7262C27.3167 20.7262 28.3044 20.4818 29.1336 19.9862C29.9628 19.494 30.64 18.8366 31.162 18.014C31.6839 17.1915 32.0671 16.2533 32.3182 15.2061C32.5693 14.1588 32.6915 13.0885 32.6915 11.9983C32.6915 10.9082 32.566 9.83785 32.3182 8.79064C32.0671 7.74343 31.6806 6.80853 31.162 5.98266C30.64 5.16008 29.9661 4.50268 29.1336 4.01046C28.3044 3.51824 27.3167 3.27378 26.177 3.27378ZM26.177 0C27.7792 0 29.2162 0.32044 30.4881 0.964625C31.7599 1.60551 32.8336 2.47103 33.7156 3.56118C34.5976 4.65134 35.2715 5.9265 35.7439 7.38004C36.213 8.83359 36.4476 10.3763 36.4476 12.0017C36.4476 13.627 36.213 15.1994 35.7439 16.653C35.2715 18.1065 34.5976 19.3784 33.7156 20.4719C32.8336 21.562 31.7566 22.4242 30.4881 23.0552C29.2162 23.6862 27.7792 24 26.177 24C24.5748 24 23.1378 23.6829 21.8659 23.0552C20.5941 22.4242 19.5204 21.562 18.6384 20.4719C17.7563 19.3817 17.0824 18.1098 16.61 16.653C16.1409 15.1994 15.9064 13.6468 15.9064 12.0017C15.9064 10.3565 16.1409 8.83689 16.61 7.38004C17.0824 5.9265 17.7563 4.65465 18.6384 3.56118C19.5204 2.47103 20.5974 1.6022 21.8659 0.964625C23.1378 0.323744 24.5748 0 26.177 0Z" fill="#2E2E2E"/>
<path d="M52.8066 0.545166V9.65955H43.0481V0.545166H39.2953V23.455H43.0481V13.1216H52.8066V23.455H56.5627V0.545166H52.8066Z" fill="#2E2E2E"/>
<path d="M74.4281 0.545166V17.4228H74.3686L64.5803 0.545166H60.6161V23.455H64.1872V6.61041H64.2797L74.0382 23.455H78.0025V0.545166H74.4281Z" fill="#2E2E2E"/>
<path d="M95.957 0.545166V17.4228H95.8975L86.1092 0.545166H82.145V23.455H85.7194V6.61041H85.8086L95.5672 23.455H99.5314V0.545166H95.957Z" fill="#2E2E2E"/>
<path d="M117.027 0.545166L111.444 10.8125L105.769 0.545166H101.415L109.462 14.4695V23.455H113.215V14.4695L121.232 0.545166H117.027Z" fill="#2E2E2E"/>
<path d="M152.117 0.545166L148.123 18.0637H148.063L143.858 0.545166H140.016L135.692 18.0637H135.629L131.757 0.545166H127.942L133.591 23.455H137.462L141.846 5.93649H141.906L146.2 23.455H150.016L155.929 0.545166H152.117Z" fill="#2E2E2E"/>
<path d="M163.464 4.49286H163.554L166.768 14.3439H160.224L163.468 4.49286H163.464ZM161.542 0.545166L153.313 23.455H157.188L159.199 17.3898H167.756L169.767 23.455H173.791L165.532 0.545166H161.538H161.542Z" fill="#2E2E2E"/>
<path d="M178.086 15.8172C178.086 16.6926 178.224 17.4425 178.505 18.0636C178.786 18.6847 179.176 19.1934 179.675 19.5865C180.173 19.9829 180.752 20.2703 181.402 20.452C182.053 20.6337 182.76 20.7262 183.52 20.7262C184.343 20.7262 185.043 20.6238 185.621 20.419C186.202 20.2175 186.671 19.9532 187.032 19.6328C187.392 19.3123 187.653 18.9423 187.811 18.5261C187.973 18.1065 188.052 17.687 188.052 17.2575C188.052 16.3821 187.867 15.7346 187.497 15.3151C187.127 14.8955 186.721 14.6048 186.282 14.433C185.522 14.1324 184.637 13.8483 183.626 13.5807C182.615 13.3131 181.369 12.9663 179.886 12.5401C178.964 12.2824 178.198 11.9488 177.59 11.5293C176.979 11.113 176.493 10.6472 176.133 10.1319C175.773 9.61982 175.519 9.07474 175.367 8.49663C175.218 7.91851 175.142 7.33049 175.142 6.73255C175.142 5.57632 175.367 4.57866 175.816 3.73297C176.265 2.88727 176.863 2.18692 177.603 1.63193C178.343 1.07694 179.186 0.664006 180.127 0.396421C181.065 0.135444 182.02 0 182.978 0C184.098 0 185.155 0.155265 186.146 0.465795C187.137 0.776325 188.006 1.23882 188.759 1.85988C189.509 2.48094 190.104 3.24735 190.547 4.15582C190.986 5.06428 191.207 6.1181 191.207 7.31397H187.454C187.352 5.8373 186.883 4.7967 186.044 4.18555C185.201 3.5777 184.131 3.27047 182.83 3.27047C182.39 3.27047 181.938 3.31672 181.478 3.41583C181.019 3.51163 180.596 3.6702 180.216 3.89814C179.837 4.12278 179.519 4.4267 179.268 4.81321C179.017 5.19972 178.892 5.68204 178.892 6.25685C178.892 7.06951 179.13 7.70709 179.599 8.16628C180.068 8.62546 180.686 8.97233 181.445 9.20688C181.525 9.23001 181.838 9.3192 182.39 9.48107C182.942 9.63964 183.556 9.81803 184.237 10.0096C184.917 10.2012 185.581 10.3895 186.232 10.5712C186.883 10.7529 187.349 10.8884 187.63 10.9743C188.33 11.2121 188.941 11.5326 189.46 11.9389C189.978 12.3452 190.414 12.811 190.765 13.3363C191.115 13.8582 191.376 14.4198 191.544 15.0211C191.716 15.619 191.799 16.2202 191.799 16.8182C191.799 18.0999 191.554 19.1967 191.065 20.1085C190.573 21.0169 189.929 21.7602 189.129 22.3383C188.327 22.9164 187.418 23.3393 186.397 23.6069C185.377 23.8745 184.336 24.0066 183.275 24.0066C182.053 24.0066 180.904 23.848 179.823 23.5243C178.743 23.2039 177.802 22.7116 177.002 22.0476C176.199 21.3836 175.558 20.5346 175.079 19.4973C174.597 18.46 174.346 17.2344 174.33 15.8238H178.082L178.086 15.8172Z" fill="#2E2E2E"/>
</g>
<defs>
<clipPath id="clip0_2238_15984">
<rect width="191.808" height="24" fill="white"/>
</clipPath>
</defs>
</svg>
